<svg width="290" height="290" viewBox="0 0 290 290" fill="none" xmlns="http://www.w3.org/2000/svg">
<path d="M145 265.833C211.734 265.833 265.833 211.734 265.833 145C265.833 78.2656 211.734 24.1667 145 24.1667C78.2655 24.1667 24.1666 78.2656 24.1666 145C24.1666 211.734 78.2655 265.833 145 265.833Z" fill="#777879"/>
<path d="M96.66 178.229C94.3642 178.229 92.0684 177.383 90.2559 175.571L66.0892 151.404C62.585 147.9 62.585 142.099 66.0892 138.595L90.2559 114.428C93.76 110.924 99.56 110.924 103.064 114.428C106.568 117.933 106.568 123.733 103.064 127.238L85.3017 145L103.064 162.761C106.568 166.265 106.568 172.067 103.064 175.571C101.252 177.383 98.9559 178.229 96.66 178.229Z" fill="white"/>
<path d="M193.327 178.229C191.032 178.229 188.736 177.383 186.923 175.571C183.419 172.067 183.419 166.265 186.923 162.761L204.686 145L186.923 127.238C183.419 123.733 183.419 117.933 186.923 114.428C190.427 110.924 196.227 110.924 199.731 114.428L223.898 138.595C227.402 142.099 227.402 147.9 223.898 151.404L199.731 175.571C197.919 177.383 195.623 178.229 193.327 178.229Z" fill="white"/>
<path d="M132.918 182.218C131.71 182.218 130.501 181.976 129.414 181.493C124.822 179.56 122.647 174.243 124.701 169.53L148.868 113.1C150.801 108.509 156.118 106.334 160.71 108.388C165.301 110.321 167.476 115.638 165.422 120.351L141.255 176.78C139.805 180.164 136.422 182.218 132.918 182.218Z" fill="white"/>
</svg>
