<svg width="292" height="292" viewBox="0 0 292 292" fill="none" xmlns="http://www.w3.org/2000/svg">
<path d="M256.584 84.9236C246.242 73.4869 228.966 67.7686 203.902 67.7686H200.982V67.2819C200.982 46.8419 200.982 21.5352 155.236 21.5352H136.742C90.9952 21.5352 90.9952 46.9636 90.9952 67.2819V67.8902H88.0752C62.8902 67.8902 45.7352 73.6086 35.3935 85.0452C23.3485 98.4286 23.7135 116.435 24.9302 128.723L25.0519 129.575L26.2685 142.35C26.3902 142.472 26.6335 142.715 26.8769 142.837C30.8919 145.513 35.0285 148.19 39.4085 150.623C41.1119 151.718 42.9369 152.692 44.7619 153.665C65.5669 165.102 88.4402 172.767 111.679 176.538C112.774 187.975 117.762 201.358 144.407 201.358C171.052 201.358 176.284 188.097 177.136 176.295C201.956 172.28 225.924 163.642 247.581 150.988C248.311 150.623 248.797 150.258 249.406 149.893C255.002 146.73 260.234 143.323 265.344 139.552C265.587 139.43 265.831 139.187 265.952 138.943L266.439 134.563L267.047 128.845C267.169 128.115 267.169 127.507 267.291 126.655C268.264 114.367 268.021 97.5769 256.584 84.9236ZM159.251 168.265C159.251 181.162 159.251 183.108 144.286 183.108C129.321 183.108 129.321 180.797 129.321 168.387V153.057H159.251V168.265ZM108.394 67.7686V67.2819C108.394 46.5986 108.394 38.9336 136.742 38.9336H155.236C183.584 38.9336 183.584 46.7202 183.584 67.2819V67.8902H108.394V67.7686Z" fill="white"/>
<path d="M249.419 149.649C248.811 150.014 248.202 150.379 247.594 150.744C225.937 163.397 201.969 171.914 177.149 176.05C176.176 187.73 171.066 201.114 144.421 201.114C117.775 201.114 112.665 187.852 111.692 176.294C88.4536 172.644 65.5803 164.979 44.7753 153.42C42.9503 152.447 41.1253 151.474 39.422 150.379C35.042 147.945 30.9053 145.269 26.8903 142.592C26.647 142.47 26.4036 142.227 26.282 142.105L33.7036 221.31C36.2586 245.522 46.2353 270.464 99.7686 270.464H192.479C246.012 270.464 255.989 245.522 258.544 221.189L266.209 138.699C266.087 138.942 265.844 139.185 265.601 139.307C260.369 143.079 255.016 146.607 249.419 149.649Z" fill="#777879"/>
</svg>
