<svg width="311" height="311" viewBox="0 0 311 311" fill="none" xmlns="http://www.w3.org/2000/svg">
<path d="M74.3727 207.333C75.7981 200.984 73.2064 191.913 68.671 187.378L37.1823 155.889C27.3339 146.04 23.4464 135.544 26.2973 126.473C29.2777 117.403 38.4781 111.183 52.2139 108.85L92.6439 102.112C98.4752 101.075 105.602 95.8917 108.324 90.5788L130.612 45.8725C137.091 33.0438 145.903 25.9167 155.492 25.9167C165.081 25.9167 173.893 33.0438 180.372 45.8725L202.661 90.5788C204.345 93.9479 207.844 97.1875 211.602 99.3904L72.0402 238.952C70.226 240.766 67.116 239.081 67.6344 236.49L74.3727 207.333Z" fill="white"/>
<path d="M242.331 187.376C237.666 192.041 235.075 200.982 236.63 207.332L245.571 246.337C249.329 262.535 246.996 274.715 238.962 280.547C235.722 282.879 231.835 284.045 227.3 284.045C220.691 284.045 212.916 281.583 204.363 276.53L166.395 253.982C160.435 250.483 150.586 250.483 144.625 253.982L106.657 276.53C92.2735 284.952 79.963 286.378 72.0585 280.547C69.078 278.344 66.8751 275.363 65.4497 271.476L223.023 113.902C228.984 107.942 237.407 105.22 245.571 106.646L258.659 108.849C272.395 111.181 281.595 117.401 284.575 126.472C287.426 135.543 283.539 146.039 273.69 155.887L242.331 187.376Z" fill="#777879"/>
</svg>
